PathFileType	4	(X/Y/Z)	16_2_101_p1_0-202.trc
DataRate	CameraRate	NumFrames	NumMarkers	Units	OrigDataRate	OrigDataStartFrame	OrigNumFrames
59.0	59.0	7	27	m	59.0	25	203
Frame#	Time	RHip			RKnee			RAnkle			RBigToe			RSmallToe			RHeel			LHip			LKnee			LAnkle			LBigToe			LSmallToe			LHeel			Neck			Head			Nose			RShoulder			RElbow			RWrist			RThumb			RIndex			RPinky			LShoulder			LElbow			LWrist			LThumb			LIndex			LPinky			
		X1	Y1	Z1	X2	Y2	Z2	X3	Y3	Z3	X4	Y4	Z4	X5	Y5	Z5	X6	Y6	Z6	X7	Y7	Z7	X8	Y8	Z8	X9	Y9	Z9	X10	Y10	Z10	X11	Y11	Z11	X12	Y12	Z12	X13	Y13	Z13	X14	Y14	Z14	X15	Y15	Z15	X16	Y16	Z16	X17	Y17	Z17	X18	Y18	Z18	X19	Y19	Z19	X20	Y20	Z20	X21	Y21	Z21	X22	Y22	Z22	X23	Y23	Z23	X24	Y24	Z24	X25	Y25	Z25	X26	Y26	Z26	X27	Y27	Z27	
25	0.423728813559322	0.3004797532413372	0.5081587406710417	0.529735496934482	0.29255419273171585	0.6440925142394982	0.9670595720712345	0.25820486925547215	0.7362942652752507	1.3703276579158632	0.23733435102865058	0.4370255155753532	1.3630221220595018	0.3110880394443519	0.4808212116256214	1.3758802732996873	0.23580176214307635	0.7945154916024427	1.420292393965567	0.05963231220855341	0.5193383567958193	0.5305829732473879	0.07561060344242602	0.6260786598350209	0.94589690130572	0.09027017498563218	0.7048844514520061	1.3347401990507495	0.0598226222257133	0.44916852369427146	1.3553160422268957	0.00493863338818502	0.5400488139304734	1.3677642331332789	0.11269451618873816	0.8015814117359356	1.4263999713931634	0.19687789124342378	0.46021014753187095	-0.14055370056540178	0.2469597294980337	0.3867303099626215	-0.3886030559748108	0.20613823103742043	0.3240285301252685	-0.24092817543038342	0.35965769742214976	0.4921340498272132	-0.049509793085250005	0.42905507352559447	0.4213280614417645	0.22838708429140822	0.21840014910241848	0.3037694921693559	0.3569392802650054	0.10402649578487995	0.37532046922240103	0.37654356210604384	0.14128549070699734	0.22912598278537546	0.4028115741395301	0.12324687148751216	0.3038494844676814	0.41614283491692766	0.02088702753982701	0.49257552062507826	-0.058267000648661825	-0.03392032312624258	0.414082607921871	0.21578416118805635	0.13404236786867302	0.3192042604594839	0.38480353410666235	0.24690078527526466	0.2956905033907924	0.4358195922975472	0.28640207876981233	0.2551014667219846	0.4754740235578768	0.24105646725254823	0.24276002372590466	0.48779892785077617
26	0.4406779661016949	0.3009599156330146	0.5077065343734117	0.5261237765381439	0.29253700312528175	0.6439517795364705	0.9670265323713737	0.2582857881667858	0.7363502587396912	1.3704691918737752	0.2372973907570566	0.4369582986499946	1.3630018075293482	0.3111790663210666	0.4808878010464629	1.3758363506002482	0.2359946481212625	0.7947498333331248	1.4209577023690554	0.05974887635488879	0.5191073381353983	0.5304189016819536	0.07573929780158582	0.6265744876553786	0.9459791886636459	0.09378358793986723	0.7199302051973457	1.3409538172208084	0.05996692314086705	0.4490824193304854	1.3554142401038705	0.0050097272052529816	0.5399965502252819	1.3677073684285153	0.11274852577864902	0.8015389906893854	1.4262928684603307	0.19687176806919787	0.46017455564200843	-0.14053915079242343	0.24694474803477756	0.3867052437161761	-0.3886568879826591	0.20604045607200383	0.3240308063904388	-0.24100328407830218	0.3596309948568967	0.492171753410039	-0.04949470215762567	0.429047200408818	0.4212541487378159	0.228386348400219	0.22180718832500304	0.3141370510178132	0.3585271137245102	0.13516994958414494	0.2551566420399181	0.3625840334077422	0.14067932494265334	0.23969695527590004	0.4083109485944517	0.12687367760058652	0.3189229715757226	0.4236733136102469	0.020876986891672375	0.4926187591951019	-0.058257966495315665	-0.03388290094228863	0.41432118916869437	0.2158691012522259	0.13884734740991098	0.32218548879901976	0.3921789087201051	0.2404185791122397	0.29773397854824607	0.4305144454684711	0.28371909173805787	0.26636367125238986	0.4756485677004183	0.24145312194040408	0.24236302856683298	0.49155184554489695
27	0.4576271186440678	0.30427361480889437	0.49300674497056424	0.5230211960713979	0.2960394744656342	0.6280533938906624	0.9617331586902873	0.259529347134772	0.7386898632000405	1.3762661758135037	0.23722020468624508	0.438432576359537	1.3593625210555662	0.31133908586259357	0.48164012710298415	1.375994782690355	0.2372874730233579	0.7975429675385222	1.4272436142112028	0.06790991853649413	0.5045816871444153	0.522943441915542	0.0757821776466388	0.6263949909402755	0.9458969275902437	0.09381293225552488	0.7199528534729152	1.3410583967242327	0.05993301340033161	0.44938596391229785	1.3554921372973705	0.004985912046491366	0.5401558638919361	1.367646495255015	0.11624721542755624	0.8158664495196322	1.432887996467878	0.19684591551686362	0.4601564606302396	-0.14057004927173997	0.24691789566243286	0.38678825537048034	-0.3886563122151418	0.20563625331506696	0.3231767089666137	-0.24435136904037946	0.35962590882444345	0.4921791236707009	-0.04943481084162576	0.42839782992617564	0.4201350884640491	0.22477221643445555	0.22271067364868513	0.31564016959626257	0.3622960473027454	0.13589303791004834	0.277785442423403	0.3725052478700459	0.1484510218301899	0.2578924274317584	0.42457625688963396	0.1311437375540875	0.3349546999686407	0.4353746088207013	0.020885375361619194	0.4926094051897986	-0.05826031027715344	-0.03376439173176883	0.41404584144429146	0.21957976383726763	0.13500399667997015	0.31014229273856647	0.3871548059140666	0.2373157541950917	0.2840009308122979	0.4285368911215348	0.2837681797172407	0.26716884670918056	0.4749700574229393	0.237807744083001	0.24283570926122944	0.4923623139497521
28	0.4745762711864407	0.30437186050320103	0.49262150084941975	0.5230346922991419	0.2926005126418013	0.6442034112781797	0.9671295193600833	0.25945011597759937	0.7386558451506163	1.3760901882007972	0.23354529950467823	0.4259792938319804	1.3573696757010194	0.31128370245799347	0.48172385443050586	1.3758898585742108	0.23724570256286828	0.7973227571786096	1.4267719719488614	0.07133352201207664	0.517192154415064	0.5291174357141123	0.0758644706524745	0.6265744655364823	0.9460166039474764	0.0928432810992108	0.7178228419696904	1.335874362822533	0.059987487265728626	0.44927379976327003	1.3555197632055884	0.005029974813122545	0.5401279082689473	1.3677518640193504	0.11618817777189211	0.8158411732497421	1.4331161264408538	0.19684996619195597	0.46023086315267453	-0.14056739348140657	0.24686298122617933	0.38680029570048563	-0.3886980539534955	0.20547607159484146	0.3232120742963477	-0.24439172633336373	0.3596436476854343	0.4922414349338099	-0.049459961661809416	0.42900164359737225	0.42117431461648885	0.22845754767195553	0.2230406698160168	0.3150349521595882	0.36587858602979734	0.13992075087314107	0.26719428933260453	0.37393055487311305	0.14545240279295338	0.2687459479169541	0.4235840757433831	0.12622915000551546	0.3260653232631461	0.41957732249929286	0.02090011957460684	0.49276158767130857	-0.05825155876074531	-0.033706287852591464	0.41432489182169757	0.21943960423428008	0.1315855660997899	0.2995602924155306	0.3855958771421212	0.2277234573936907	0.27288576484944777	0.4213366822756765	0.27467114207515386	0.27935515770665287	0.4748713692872795	0.23852732299600984	0.24128415917346502	0.4968956888005389
29	0.4915254237288136	0.30435919155150726	0.49265299692680437	0.5230359428264455	0.29607208961539716	0.6279828835542328	0.9615928643251572	0.25945116256369716	0.7385482592304983	1.3760192840136187	0.22967267470336547	0.4405125965787615	1.3647742557646934	0.30741147425991816	0.4687681010658372	1.3700535356079997	0.23819407033568496	0.7969471267820355	1.4223859983116638	0.0674022234097445	0.5331419681435196	0.5369637053768934	0.07566773574907587	0.6264426018177018	0.9459882604663816	0.09282144458191811	0.7177589060268098	1.3357362560270656	0.05984177040478517	0.4492472898634476	1.3552822688746842	0.004984085133258674	0.5400676436539381	1.3675647176409207	0.11620754045275941	0.816109746852085	1.432778737613594	0.19683827051931346	0.46023075154625936	-0.1405602894099001	0.24682562985568413	0.3868385608992521	-0.38866252516248245	0.20540085031340283	0.32319013984686906	-0.244469265886186	0.3596219059809016	0.49220620580118446	-0.04945367556010832	0.4290750230647809	0.4214637107999869	0.22852443161978117	0.22310625556051805	0.31511965455815233	0.36607193932938076	0.14168057759119135	0.2622054849323911	0.3809926935444124	0.1467503766822191	0.2707394189480232	0.4323213258914613	0.12831425443723654	0.34137089941261495	0.4324110754383271	0.02090425807572321	0.4927987931602825	-0.05821203156995202	-0.03382920523376041	0.41432463947204684	0.21969943042967852	0.12828110695762338	0.3232345610458831	0.39648968632411963	0.21944027946436	0.30809141141033175	0.43173352010120125	0.26908048020564623	0.3015029799915086	0.48844891801584706	0.2304025767878709	0.2530125612821663	0.49661386879085556
30	0.5084745762711864	0.30443264571534484	0.49253370012427383	0.5231034535310405	0.292571367120898	0.6439234945659001	0.9670357589594147	0.2593955720202239	0.738542514298905	1.375924917095482	0.22918898674321814	0.44137203773437594	1.3611227126023453	0.3071342597694967	0.4687455000478134	1.3701900188456304	0.2381807006117692	0.7968630119031104	1.4217876140444183	0.0674362885884939	0.5332569558986594	0.5369247973133886	0.0757215451252324	0.6265568360019848	0.9459729658720983	0.0937522672167142	0.7199197840178067	1.3410934487713513	0.05986460642592775	0.44917638877195143	1.3552976581649767	0.004986701917384428	0.5400225318921298	1.3676620704780718	0.11625958912150881	0.8160916973587391	1.4326900475794282	0.1967695672811578	0.46020562744276733	-0.14057226469832074	0.2468150611659904	0.38688694695319126	-0.3886768440107163	0.20211745048778093	0.3349191124693436	-0.24519129415562868	0.3595650849932055	0.4921684175974462	-0.049461489921259726	0.4334184879180354	0.4330136122534005	0.22951004857533508	0.2231872122767065	0.31544919357065027	0.3662081203951093	0.14327704070828634	0.25391848389615845	0.3836120908334785	0.13871082109695945	0.29463100148226484	0.4294794593312034	0.12598477390858967	0.3267617395511155	0.42341280416797866	0.020857981986875627	0.49285409088756604	-0.05818630373968653	-0.034264041332128514	0.4146120028739008	0.21928609772462102	0.13186975311225355	0.3105113068486083	0.39491572689090837	0.21804560885942456	0.29034015934813	0.43200684700396647	0.2773124073351011	0.2654168807317351	0.4872718324112224	0.23652202202697525	0.22940689640468773	0.4940836766776975
31	0.5254237288135594	0.3051605807697234	0.4938500310379091	0.527177986316929	0.2971547767179871	0.6299386187165071	0.966685842741181	0.25944933148140087	0.7389817868063447	1.376162844532048	0.23363695208252874	0.4521088445197867	1.3706505193303753	0.30827104352250206	0.4966137953121212	1.3836347151700914	0.2423595009233153	0.8125291549583957	1.429058271236511	0.06733983192467426	0.5335423918049803	0.5334117083954416	0.07578615641887029	0.6268578759734817	0.9460874529773642	0.09038448628700954	0.7015655067263576	1.3243189434961418	0.060220217367753716	0.44838828941403563	1.3595323850051702	0.005305452978299325	0.5390700693686432	1.3720153839242502	0.1128658994896759	0.8016908902827726	1.4254437449127029	0.19677180135705158	0.4601760442263197	-0.14057615764749468	0.2426547375046009	0.38602873053973946	-0.38848728225233137	0.20128762075049544	0.32193473165085107	-0.24453593666440598	0.35955039286594875	0.49216618287796415	-0.04942697710261007	0.4337202963850634	0.4335363854338702	0.2295310456875554	0.2230444548796307	0.31378350550038386	0.3700006988880922	0.14310787005233022	0.24717788076863256	0.38136208336725125	0.1382569999803509	0.268939936824726	0.4254156592077381	0.1269199103002728	0.3286462936329392	0.43590246263561766	0.020891257555450977	0.49278339322279197	-0.05822758365338761	-0.03432833419465844	0.41498106983052946	0.21934902849668916	0.13182974934075248	0.31059431300053725	0.3951224048565261	0.2185169553171558	0.2699816835567735	0.43228800837558057	0.26639610236940053	0.28997842804092944	0.4925742212439624	0.22944054745655487	0.25267115462067563	0.49880236314328275
